<svg width="188" height="51" viewBox="0 0 188 51" fill="none" xmlns="http://www.w3.org/2000/svg">
<path fill-rule="evenodd" clip-rule="evenodd" d="M129.21 0.587067H2.80939C1.25784 0.587067 0 1.83412 0 3.37282V37.9236C0 39.4623 1.25784 40.7095 2.80939 40.7095H100.563C101.521 40.7095 102.462 40.9583 103.293 41.4318L116.553 50.4143C117.42 50.9085 118.5 50.2829 118.493 49.2917L118.439 42.5815C118.432 41.5499 119.272 40.7095 120.313 40.7095H129.21C130.761 40.7095 132.019 39.4623 132.019 37.9236V3.37282C132.019 1.83412 130.761 0.587067 129.21 0.587067ZM39.9766 20.6085C39.9766 22.3491 39.3885 23.8216 38.2282 24.9847C37.0684 26.1478 35.629 26.7376 33.9506 26.7376C32.258 26.7376 30.8115 26.1478 29.6524 24.9853C28.5062 23.8151 27.9252 22.3427 27.9252 20.6085C27.9252 18.8743 28.5133 17.3943 29.6753 16.2088C30.8209 15.018 32.2592 14.4142 33.9506 14.4142C35.6361 14.4142 37.0749 15.0104 38.227 16.1877C39.3879 17.3731 39.9766 18.8602 39.9766 20.6085ZM33.9506 12.1272C31.6558 12.1272 29.6548 12.967 28.0039 14.6231C26.3671 16.2639 25.537 18.2997 25.537 20.6736C25.537 22.9958 26.3378 24.9877 27.9175 26.5938C29.5114 28.1918 31.5118 29.0024 33.8648 29.0024C36.2096 29.0024 38.2317 28.1778 39.8761 26.5505C41.5276 24.8943 42.3642 22.8878 42.3642 20.5868C42.3642 18.271 41.5346 16.2639 39.8978 14.6231C38.2464 12.967 36.2454 12.1272 33.9506 12.1272ZM22.0704 24.0245C20.6974 25.8244 18.8991 26.7376 16.7259 26.7376C14.9963 26.7376 13.5352 26.1619 12.3825 25.0269C11.2374 23.8995 10.6571 22.427 10.6571 20.6512C10.6571 18.8531 11.2522 17.3443 12.4265 16.1671C13.6174 14.9728 15.0303 14.3918 16.7471 14.3918C18.7869 14.3918 20.6951 15.3959 21.9823 17.146L22.0798 17.2785L23.8276 15.8513L23.7535 15.7334C23.0862 14.6752 22.0986 13.7962 20.819 13.1207C19.57 12.4616 18.1929 12.1271 16.7259 12.1271C14.403 12.1271 12.3954 12.937 10.7593 14.5338C9.12074 16.1113 8.29001 18.1624 8.29001 20.6301C8.29001 23.0474 9.10664 25.0691 10.7152 26.6384L10.7164 26.6395C12.3308 28.193 14.3313 28.9805 16.6607 28.9805C19.5401 28.9805 22.2055 27.6596 23.7912 25.4471L23.8758 25.3291L22.1697 23.8942L22.0704 24.0245ZM46.5145 12.4094L53.121 22.2879L59.6634 12.4094H61.1027V28.7428H58.7798V18.0197L53.4206 25.9458H52.7579L47.3988 18.0197V28.7428H45.0969V12.4094H46.5145ZM72.2934 22.2879L65.6864 12.4094H64.2693V28.7428H66.5706V18.0197L71.9297 25.9458H72.5924L77.9522 18.0197V28.7428H80.2752V12.4094H78.8352L72.2934 22.2879ZM92.9627 21.5458H85.743V26.5212H93.5673V28.7425H83.4412V12.4095H93.5462V14.6302H85.743V19.324H92.9627V21.5458ZM107.239 23.7924L97.8606 12.4096H96.5173V28.7425H98.8194V17.4174L108.313 28.6869L108.359 28.7425H109.54V12.4096H107.239V23.7924ZM111.895 14.6741V12.4094H123.728V14.6741H118.973V28.7428H116.65V14.6741H111.895ZM163.858 23.1084C163.858 24.4018 163.442 25.4681 162.584 26.369C161.732 27.2663 160.715 27.7029 159.476 27.7029C158.236 27.7029 157.22 27.2663 156.366 26.369C155.51 25.4681 155.093 24.4018 155.093 23.1084C155.093 21.8478 155.51 20.7973 156.366 19.8959C157.223 18.995 158.269 18.5385 159.476 18.5385C160.682 18.5385 161.729 18.995 162.584 19.8959C163.442 20.7967 163.858 21.8478 163.858 23.1084ZM159.476 15.9886C157.415 15.9886 155.692 16.6911 154.355 18.0766C153.018 19.4352 152.341 21.1283 152.341 23.1084C152.341 25.1213 153.018 26.8309 154.355 28.19C155.702 29.5586 157.424 30.2522 159.476 30.2522C161.527 30.2522 163.25 29.5586 164.596 28.19C165.933 26.8309 166.61 25.1213 166.61 23.1084C166.61 21.1442 165.924 19.4511 164.573 18.0772C163.216 16.6717 161.548 15.9886 159.476 15.9886ZM148.158 20.4342C147.717 20.149 146.897 19.7417 145.802 19.2194C144.71 18.6866 144.001 18.3209 143.694 18.132C142.742 17.5439 142.279 16.828 142.279 15.9424C142.279 14.6056 143.375 13.6719 144.946 13.6719C146.311 13.6719 147.417 14.2828 148.326 15.5392L148.503 15.7828L150.532 14.004L150.389 13.8045C149.061 11.9429 147.221 10.9993 144.922 10.9993C143.256 10.9993 141.89 11.4934 140.864 12.4659C139.831 13.4201 139.307 14.639 139.307 16.0891C139.307 17.8778 140.256 19.3948 142.133 20.6015C142.717 20.9578 143.404 21.3163 144.17 21.6678C145.114 22.1009 145.709 22.3756 146.038 22.5627C147.213 23.2177 147.809 24.0176 147.809 24.9419C147.809 26.4519 146.511 27.5064 144.653 27.5064C142.911 27.5064 141.476 26.5193 140.611 24.7265L140.464 24.4248L138.258 26.1062L138.352 26.3046C139.509 28.7611 141.873 30.2271 144.677 30.2271C146.437 30.2271 147.907 29.7277 149.044 28.7448C150.23 27.7418 150.831 26.4214 150.831 24.8199C150.831 22.9871 149.93 21.51 148.158 20.4342ZM171.681 29.9348H168.953V10.8778H171.681V29.9348ZM185.443 23.1084C185.443 24.4217 185.049 25.4981 184.242 26.3966C183.431 27.275 182.406 27.7029 181.111 27.7029C179.814 27.7029 178.791 27.275 177.981 26.3988C177.17 25.4981 176.777 24.4217 176.777 23.1084C176.777 21.8231 177.182 20.7334 177.981 19.8665C178.785 18.9728 179.809 18.5385 181.111 18.5385C182.412 18.5385 183.435 18.9728 184.24 19.8665L184.242 19.8689C185.039 20.7334 185.443 21.8231 185.443 23.1084ZM185.272 10.8777V17.8102C184.092 16.6006 182.614 15.9886 180.864 15.9886C178.917 15.9886 177.275 16.6928 175.986 18.0795C174.684 19.4546 174.025 21.1471 174.025 23.1084C174.025 25.1218 174.658 26.7827 175.961 28.1859C177.259 29.5574 178.925 30.2522 180.914 30.2522C182.672 30.2522 184.135 29.6782 185.272 28.5433V29.9347H188V10.8777H185.272Z" fill="white"/>
</svg>
