<svg width="20" height="20" viewBox="0 0 20 20" fill="none" xmlns="http://www.w3.org/2000/svg">
<path d="M18.9688 10C18.9688 10.5625 18.5 11 17.9688 11H16.9688L17 16C17 16.0938 17 16.1875 17 16.25V16.75C17 17.4688 16.4375 18 15.75 18H15.25C15.1875 18 15.1562 18 15.125 18C15.0938 18 15.0312 18 15 18H13.25C12.5312 18 12 17.4688 12 16.75V14C12 13.4688 11.5312 13 11 13H9C8.4375 13 8 13.4688 8 14V16.75C8 17.4688 7.4375 18 6.75 18H5C4.9375 18 4.90625 18 4.84375 18C4.8125 18 4.78125 18 4.75 18H4.25C3.53125 18 3 17.4688 3 16.75V13.25C3 13.25 3 13.2188 3 13.1875V11H2C1.4375 11 1 10.5625 1 10C1 9.71875 1.09375 9.46875 1.3125 9.25L9.3125 2.28125C9.53125 2.0625 9.78125 2 10 2C10.2188 2 10.4688 2.09375 10.6562 2.25L18.625 9.25C18.875 9.46875 19 9.71875 18.9688 10Z" fill="white"/>
</svg>
