<svg width="22" height="20" viewBox="0 0 22 20" fill="none" xmlns="http://www.w3.org/2000/svg">
<path d="M7.625 7.03125L7.4375 6.96875C6.59375 6.71875 6.625 6.59375 6.65625 6.375C6.71875 6.03125 7.25 5.96875 7.75 6.03125C7.9375 6.0625 8.125 6.125 8.3125 6.1875C8.59375 6.28125 8.875 6.15625 8.96875 5.90625C9.03125 5.625 8.90625 5.34375 8.65625 5.25C8.375 5.15625 8.1875 5.09375 7.96875 5.0625V4.75C7.96875 4.5 7.75 4.25 7.46875 4.25C7.21875 4.25 6.96875 4.5 6.96875 4.75V5.0625C6.28125 5.15625 5.78125 5.59375 5.6875 6.21875C5.46875 7.4375 6.65625 7.78125 7.15625 7.9375L7.34375 8C8.25 8.25 8.34375 8.375 8.3125 8.65625C8.25 9 7.71875 9.0625 7.21875 9C7 8.9375 6.71875 8.84375 6.46875 8.75L6.3125 8.71875C6.0625 8.625 5.78125 8.75 5.6875 9C5.59375 9.28125 5.71875 9.5625 5.96875 9.65625L6.09375 9.6875C6.34375 9.8125 6.65625 9.90625 6.96875 9.96875V10.25C6.96875 10.5312 7.1875 10.75 7.46875 10.75C7.71875 10.75 7.96875 10.5312 7.96875 10.25V9.96875C8.65625 9.84375 9.15625 9.4375 9.25 8.8125C9.5 7.5625 8.3125 7.25 7.625 7.03125ZM19.9375 15.625C20.5938 14.75 21 13.6562 21 12.5C21 9.46875 18.3125 7 15 7C14.9688 7 14.9688 7.03125 14.9688 7.03125C14.9688 7.1875 15 7.34375 15 7.5C15 7.6875 14.9688 7.84375 14.9688 8.03125C14.9688 8.03125 14.9688 8 15 8C17.75 8 20 10.0312 20 12.5C20 13.4062 19.6875 14.2812 19.125 15.0312L18.7188 15.5625L19.0938 16.1562C19.2812 16.4688 19.5 16.7812 19.6562 17C19.0938 16.9375 18.5312 16.7812 17.9688 16.5312L17.5625 16.375L17.1875 16.5625C16.4688 16.8438 15.75 17 15 17C12.625 17 10.6875 15.5625 10.1562 13.5938C9.84375 13.6875 9.5 13.7812 9.15625 13.8438C9.8125 16.25 12.1562 18 15 18C15.9062 18 16.7812 17.8125 17.5938 17.4688C18.3438 17.7812 19.2188 18 20.25 18C20.5312 18 20.8125 17.8438 20.9375 17.5625C21.0312 17.2812 20.9688 16.9688 20.7812 16.7812C20.7812 16.75 20.3438 16.2812 19.9375 15.625ZM14 7.5C14 4.46875 11.0625 2 7.5 2C3.90625 2 1 4.46875 1 7.5C1 8.8125 1.53125 10 2.40625 10.9375C1.9375 11.9375 1.1875 12.75 1.1875 12.75C0.96875 12.9688 0.9375 13.2812 1.03125 13.5625C1.15625 13.8438 1.4375 14 1.71875 14C3.40625 14 4.78125 13.375 5.65625 12.7812C6.25 12.9375 6.84375 13 7.5 13C11.0625 13 14 10.5625 14 7.5ZM7.5 12C6.96875 12 6.40625 11.9375 5.90625 11.8125L5.46875 11.7188L5.125 11.9688C4.46875 12.375 3.5 12.875 2.3125 13C2.59375 12.5938 3 12.0312 3.3125 11.375L3.59375 10.75L3.125 10.25C2.375 9.46875 2 8.5 2 7.5C2 5.03125 4.4375 3 7.5 3C10.5312 3 13 5.03125 13 7.5C13 10 10.5312 12 7.5 12Z" fill="#E1E1E1"/>
</svg>
