<svg width="20" height="20" viewBox="0 0 20 20" fill="none" xmlns="http://www.w3.org/2000/svg">
<path d="M7.71484 9.125C7.71484 8.52734 7.1875 8 6.58984 8H5.46484C4.19922 8 3.21484 9.01953 3.21484 10.25V12.5C3.21484 13.7305 4.23438 14.75 5.46484 14.75H6.58984C7.22266 14.75 7.71484 14.2578 7.71484 13.625V9.125ZM6.58984 13.625H5.46484C4.83203 13.625 4.33984 13.1328 4.33984 12.5V10.25C4.33984 9.65234 4.83203 9.125 5.46484 9.125H6.58984V13.625ZM14.4648 14.75C15.6953 14.75 16.7148 13.7305 16.7148 12.5V10.25C16.7148 9.01953 15.6953 8.03516 14.4648 8.03516H13.375C12.7422 8.03516 12.25 8.5625 12.25 9.16016V13.6602C12.25 14.293 12.7422 14.7852 13.375 14.7852H14.4648V14.75ZM13.3398 9.125H14.4297C15.0273 9.125 15.5547 9.65234 15.5547 10.25V12.5C15.5547 13.1328 15.0273 13.625 14.4297 13.625H13.3047L13.3398 9.125ZM10.8438 1.32031C5.42969 0.792969 1.14062 5.11719 1 10.2852L0.964844 10.8125C0.964844 11.1289 1.24609 11.375 1.5625 11.375C1.84375 11.375 2.08984 11.1289 2.125 10.8477V10.25C2.23047 5.78516 5.99219 1.98828 10.7031 2.41016C14.8164 2.79688 17.875 6.38281 17.875 10.4961V16.4375C17.875 17.3516 17.1016 18.125 16.1875 18.125H13.2344C13.4102 17.7383 13.4102 17.2812 13.1641 16.8242C12.8477 16.2266 12.1797 15.875 11.5117 15.875H9.47266C8.66406 15.875 7.92578 16.4375 7.75 17.2461C7.57422 18.3359 8.38281 19.25 9.40234 19.25H16.1172C17.6641 19.25 18.9297 18.0195 18.9297 16.4727V10.4961C19 5.82031 15.4844 1.74219 10.8438 1.32031ZM11.6523 18.125H9.40234C9.08594 18.125 8.83984 17.8789 8.83984 17.5625C8.83984 17.2812 9.08594 17 9.40234 17H11.6523C11.9336 17 12.2148 17.2812 12.2148 17.5625C12.2148 17.8789 11.9688 18.125 11.6523 18.125Z" fill="#E1E1E1"/>
</svg>
