<svg width="20" height="20" viewBox="0 0 20 20" fill="none" xmlns="http://www.w3.org/2000/svg">
<path d="M17.5312 4.34375L15.6562 2.46875C15.0938 1.875 14.125 1.875 13.5312 2.46875L11.7812 4.21875L15.75 8.21875L17.5312 6.46875C18.125 5.875 18.125 4.90625 17.5312 4.34375ZM2.96875 13.0312C2.875 13.0938 2.84375 13.1875 2.8125 13.2812L2 17.375C1.9375 17.7188 2.1875 18 2.46875 18C2.5 18 2.5625 18 2.59375 18L6.6875 17.1875C6.78125 17.1562 6.875 17.125 6.96875 17.0312L15.0625 8.9375L11.0625 4.9375L2.96875 13.0312ZM6.09375 15.7812L3.75 16.25L4.21875 13.9062L5 13.125V15H6.875L6.09375 15.7812Z" fill="#6C7D8B"/>
</svg>
