<svg width="21" height="20" viewBox="0 0 21 20" fill="none" xmlns="http://www.w3.org/2000/svg">
<path d="M18.4688 13C18.1875 13 17.9688 13.2188 17.9688 13.5V14.7812C17.9688 15 17.8125 15.2188 17.5938 15.2812L11.4688 16.9062V13C11.4688 12.7188 11.2188 12.5 10.9688 12.5C10.6875 12.5 10.4688 12.7188 10.4688 13V16.9062L4.34375 15.2812C4.125 15.2188 3.96875 15 3.96875 14.7812V13.5C3.96875 13.2188 3.71875 13 3.46875 13C3.1875 13 2.96875 13.2188 2.96875 13.5V14.7812C2.96875 15.4688 3.40625 16.0625 4.0625 16.25L10.3125 17.9062C10.5625 18 10.7812 18 10.9688 18C11.1562 18 11.375 18 11.5938 17.9375L17.8438 16.2812C18.5 16.0938 18.9688 15.5 18.9688 14.8125V13.5C18.9688 13.25 18.75 13 18.4688 13ZM20.9375 10.8125L19.4375 7.3125C19.3438 7.125 19.1562 7 18.9375 7.03125L11 8.03125L3.03125 7.03125C2.8125 7 2.625 7.125 2.53125 7.3125L1.03125 10.8125C0.96875 10.9688 0.96875 11.125 1.03125 11.25C1.09375 11.375 1.21875 11.4688 1.375 11.5L7.875 13C7.90625 13 7.9375 13 7.96875 13C8.125 13 8.25 12.9375 8.34375 12.8125L10.9688 9.34375L13.5625 12.7812C13.6875 12.9375 13.8438 13 13.9688 13C14 13 14.0312 13 14.0625 13L20.5625 11.5C20.7188 11.4688 20.8438 11.375 20.9062 11.25C21 11.0938 21 10.9375 20.9375 10.8125ZM7.78125 11.9688L2.1875 10.6562L3.28125 8.0625L10.0625 8.90625L7.78125 11.9688ZM14.1875 11.9688L11.9062 8.90625L18.6875 8.0625L19.7812 10.6562L14.1875 11.9688ZM5.5 6.5C5.75 6.5 6 6.28125 6 6C6 4.375 7.34375 3 9 3C10.625 3 12 4.375 12 6C12 6.28125 12.2188 6.5 12.5 6.5C12.75 6.5 13 6.28125 13 6C13 3.8125 11.1875 2 9 2C6.84375 2 5 3.8125 5 6C5 6.28125 5.21875 6.5 5.5 6.5ZM14.8125 6.5C14.875 6.5 14.9375 6.5 15 6.5C15.1875 6.5 15.375 6.375 15.4688 6.1875L16.4688 3.1875C16.5312 2.90625 16.4062 2.625 16.1562 2.53125C15.875 2.46875 15.5938 2.59375 15.5 2.84375L14.5 5.84375C14.4375 6.125 14.5625 6.40625 14.8125 6.5Z" fill="#E1E1E1"/>
</svg>
