<svg width="20" height="20" viewBox="0 0 20 20" fill="none" xmlns="http://www.w3.org/2000/svg">
<path d="M2 15C0.875 15 0 14.125 0 13V4C0 2.90625 0.875 2 2 2H11C12.0938 2 13 2.90625 13 4V5H15.0312C15.4688 5 15.875 5.21875 16.1562 5.53125L18.625 8.40625C18.8438 8.6875 19 9.03125 19 9.375V14H19.5C19.75 14 20 14.25 20 14.5C20 14.7812 19.75 15 19.5 15H18C18 16.6562 16.6562 18 15 18C13.3125 18 12 16.6562 12 15H7.96875C7.96875 16.6562 6.65625 18 4.96875 18C3.3125 18 1.96875 16.6562 1.96875 15H2ZM1 4V13C1 13.5625 1.4375 14 2 14H2.15625C2.5625 12.8438 3.6875 12 5 12C6.28125 12 7.40625 12.8438 7.8125 14H12V4C12 3.46875 11.5312 3 11 3H2C1.4375 3 1 3.46875 1 4ZM17.8125 9L15.4062 6.1875C15.3125 6.0625 15.1562 6 15.0312 6H13V9H17.8125ZM13 10V12.7812C13.5 12.3125 14.2188 12 15 12C16.2812 12 17.4062 12.8438 17.8125 14H18V10H13ZM5 13C3.875 13 3 13.9062 3 15C3 16.125 3.875 17 5 17C6.09375 17 7 16.125 7 15C7 13.9062 6.09375 13 5 13ZM15 17C16.0938 17 17 16.125 17 15C17 13.9062 16.0938 13 15 13C13.875 13 13 13.9062 13 15C13 16.125 13.875 17 15 17Z" fill="#E1E1E1"/>
</svg>
