<svg width="22" height="20" viewBox="0 0 22 20" fill="none" xmlns="http://www.w3.org/2000/svg">
<path d="M1.4375 6.875C1.12109 6.875 0.875 7.15625 0.875 7.4375V13.0625C0.875 13.3789 1.12109 13.625 1.4375 13.625C1.71875 13.625 2 13.3789 2 13.0625V7.4375C2 7.15625 1.71875 6.875 1.4375 6.875ZM20.5625 2.375C20.2461 2.375 20 2.65625 20 2.9375V3.35938L3.125 7.33203V8.49219L20 4.51953V16.0156L3.125 12.043V13.2031L6.57031 14.0117C6.53516 14.2578 6.5 14.5039 6.5 14.75C6.5 16.6133 8.01172 18.125 9.875 18.125C11.457 18.125 12.7578 17.0352 13.1094 15.5586L20 17.1758V17.5625C20 17.8789 20.2461 18.125 20.5625 18.125C20.8438 18.125 21.125 17.8789 21.125 17.5625V2.9375C21.125 2.65625 20.8438 2.375 20.5625 2.375ZM9.875 17C8.60938 17 7.625 16.0156 7.625 14.75C7.625 14.6094 7.625 14.4336 7.66016 14.293L12.0195 15.3125C11.7734 16.2969 10.8945 17 9.875 17Z" fill="#E1E1E1"/>
</svg>
