<svg width="22" height="20" viewBox="0 0 22 20" fill="none" xmlns="http://www.w3.org/2000/svg">
<path d="M3.125 13.625H2C1.36719 13.625 0.875 14.1523 0.875 14.75V18.125C0.875 18.7578 1.36719 19.25 2 19.25H3.125C3.72266 19.25 4.25 18.7578 4.25 18.125V14.75C4.25 14.1523 3.72266 13.625 3.125 13.625ZM3.125 18.125H2V14.75H3.125V18.125ZM20 8H18.875C18.2422 8 17.75 8.52734 17.75 9.125V18.125C17.75 18.7578 18.2422 19.25 18.875 19.25H20C20.5977 19.25 21.125 18.7578 21.125 18.125V9.125C21.125 8.52734 20.5977 8 20 8ZM20 18.125H18.875V9.125H20V18.125ZM14.375 12.5H13.25C12.6172 12.5 12.125 13.0273 12.125 13.625V18.125C12.125 18.7578 12.6172 19.25 13.25 19.25H14.375C14.9727 19.25 15.5 18.7578 15.5 18.125V13.625C15.5 13.0273 14.9727 12.5 14.375 12.5ZM14.375 18.125H13.25V13.625H14.375V18.125ZM8.75 8H7.625C6.99219 8 6.5 8.52734 6.5 9.125V18.125C6.5 18.7578 6.99219 19.25 7.625 19.25H8.75C9.34766 19.25 9.875 18.7578 9.875 18.125V9.125C9.875 8.52734 9.34766 8 8.75 8ZM8.75 18.125H7.625V9.125H8.75V18.125ZM18.6289 4.41406C18.8398 4.55469 19.1211 4.625 19.4375 4.625C20.3516 4.625 21.125 3.88672 21.125 2.9375C21.125 2.02344 20.3516 1.25 19.4375 1.25C18.4883 1.25 17.75 2.02344 17.75 2.9375C17.75 3.18359 17.7852 3.35938 17.8555 3.57031L14.5859 5.99609C14.375 5.85547 14.0938 5.75 13.8125 5.75C13.4961 5.75 13.2148 5.85547 13.0039 5.99609L9.73438 3.57031C9.80469 3.35938 9.875 3.18359 9.875 2.9375C9.875 2.02344 9.10156 1.25 8.1875 1.25C7.23828 1.25 6.5 2.02344 6.5 2.9375C6.5 3.21875 6.57031 3.46484 6.67578 3.67578L3.26562 7.08594C3.05469 6.98047 2.80859 6.875 2.5625 6.875C1.61328 6.875 0.875 7.64844 0.875 8.5625C0.875 9.51172 1.61328 10.25 2.5625 10.25C3.47656 10.25 4.25 9.51172 4.25 8.5625C4.25 8.31641 4.14453 8.07031 4.03906 7.85938L7.44922 4.44922C7.66016 4.55469 7.90625 4.625 8.1875 4.625C8.46875 4.625 8.75 4.55469 8.96094 4.41406L12.2305 6.83984C12.1602 7.05078 12.125 7.22656 12.125 7.4375C12.125 8.38672 12.8633 9.125 13.8125 9.125C14.7266 9.125 15.5 8.38672 15.5 7.4375C15.5 7.22656 15.4297 7.05078 15.3594 6.83984L18.6289 4.41406ZM19.4375 2.375C19.7188 2.375 20 2.65625 20 2.9375C20 3.25391 19.7188 3.5 19.4375 3.5C19.2617 3.5 19.1211 3.42969 19.0508 3.35938L18.9805 3.32422L18.9453 3.21875C18.875 3.11328 18.875 3.04297 18.875 2.9375C18.875 2.65625 19.1211 2.375 19.4375 2.375ZM2.5625 9.125C2.24609 9.125 2 8.87891 2 8.5625C2 8.28125 2.24609 8 2.5625 8C2.66797 8 2.77344 8.07031 2.87891 8.14062L2.94922 8.17578L2.98438 8.24609C3.05469 8.35156 3.125 8.45703 3.125 8.5625C3.125 8.87891 2.84375 9.125 2.5625 9.125ZM8.64453 3.21875L8.60938 3.32422L8.53906 3.35938C8.46875 3.42969 8.32812 3.5 8.1875 3.5C8.04688 3.5 7.94141 3.46484 7.83594 3.39453L7.76562 3.35938L7.73047 3.28906C7.66016 3.18359 7.625 3.07812 7.625 2.9375C7.625 2.65625 7.87109 2.375 8.1875 2.375C8.46875 2.375 8.75 2.65625 8.75 2.9375C8.75 3.04297 8.71484 3.11328 8.64453 3.21875ZM13.8125 8C13.4961 8 13.25 7.75391 13.25 7.4375C13.25 7.36719 13.25 7.29688 13.3203 7.19141L13.3555 7.08594L13.4258 7.05078C13.4961 6.98047 13.6367 6.875 13.8125 6.875C13.9531 6.875 14.0938 6.98047 14.1641 7.05078L14.2344 7.08594L14.2695 7.19141C14.3398 7.26172 14.375 7.36719 14.375 7.4375C14.375 7.75391 14.0938 8 13.8125 8Z" fill="#E1E1E1"/>
</svg>
