<svg width="20" height="20" viewBox="0 0 20 20" fill="none" xmlns="http://www.w3.org/2000/svg">
<path d="M9.96875 12C11.7812 12 13.2188 10.5625 13.2188 8.75C13.2188 6.96875 11.75 5.5 9.96875 5.5C8.1875 5.5 6.75 6.96875 6.75 8.75C6.71875 10.5625 8.1875 12 9.96875 12ZM9.96875 6.5C11.2188 6.5 12.2188 7.53125 12.2188 8.75C12.2188 10 11.2188 11 9.96875 11C8.75 11 7.71875 10 7.71875 8.75C7.71875 7.53125 8.75 6.5 9.96875 6.5ZM11.5312 13H8.4375C5.96875 13 4 14.875 4 17.1875C4 17.6562 4.375 18 4.875 18H15.0938C15.5938 18 16 17.6562 16 17.1875C16 14.875 14 13 11.5312 13ZM5 17C5.09375 15.3438 6.59375 14 8.40625 14H11.5312C13.375 14 14.875 15.3438 14.9688 17H5ZM16 7C17.375 7 18.5 5.90625 18.5 4.5C18.5 3.125 17.375 2 16 2C14.5938 2 13.5 3.125 13.5 4.5C13.5 5.90625 14.5938 7 16 7ZM16 3C16.8125 3 17.5 3.6875 17.5 4.5C17.5 5.34375 16.8125 6 16 6C15.1562 6 14.5 5.34375 14.5 4.5C14.5 3.6875 15.1562 3 16 3ZM4 7C5.375 7 6.5 5.90625 6.5 4.5C6.5 3.125 5.375 2 4 2C2.59375 2 1.5 3.125 1.5 4.5C1.5 5.90625 2.59375 7 4 7ZM4 3C4.8125 3 5.5 3.6875 5.5 4.5C5.5 5.34375 4.8125 6 4 6C3.15625 6 2.5 5.34375 2.5 4.5C2.5 3.6875 3.15625 3 4 3ZM17.5312 8H15.5C15.125 8 14.7812 8.09375 14.4688 8.25C14.2188 8.375 14.125 8.65625 14.2188 8.90625C14.3438 9.15625 14.6562 9.28125 14.9062 9.15625C15.0938 9.0625 15.2812 9 15.5 9H17.5312C18.3125 9 19 9.71875 19 10.5938V11C19 11.2812 19.2188 11.5 19.5 11.5C19.75 11.5 20 11.2812 20 11V10.5938C20 9.1875 18.875 8 17.5312 8ZM5.0625 9.15625C5.3125 9.28125 5.625 9.15625 5.75 8.90625C5.84375 8.65625 5.75 8.375 5.5 8.25C5.1875 8.09375 4.84375 8 4.5 8H2.4375C1.09375 8 0 9.1875 0 10.5938V11C0 11.2812 0.21875 11.5 0.5 11.5C0.75 11.5 1 11.2812 1 11V10.5938C1 9.71875 1.65625 9 2.4375 9H4.5C4.6875 9 4.875 9.0625 5.0625 9.15625Z" fill="#E1E1E1"/>
</svg>
